<svg width="21" height="21" viewBox="0 0 32 32" fill="none" xmlns="http://www.w3.org/2000/svg">
<path d="M0 16C0 7.16344 7.16344 0 16 0C24.8366 0 32 7.16344 32 16C32 24.8366 24.8366 32 16 32C7.16344 32 0 24.8366 0 16Z" fill="white" fill-opacity="0.2"/>
<path d="M9.40028 8.45753C9.13993 8.19718 8.71782 8.19718 8.45747 8.45753C8.19712 8.71788 8.19712 9.13999 8.45747 9.40034L15.0571 16L8.45747 22.5997C8.19712 22.86 8.19712 23.2821 8.45747 23.5425C8.71782 23.8028 9.13993 23.8028 9.40028 23.5425L15.9999 16.9428L22.5996 23.5425C22.86 23.8028 23.2821 23.8028 23.5424 23.5425C23.8028 23.2821 23.8028 22.86 23.5424 22.5997L16.9427 16L23.5424 9.40034C23.8028 9.13999 23.8028 8.71788 23.5424 8.45753C23.2821 8.19718 22.86 8.19718 22.5996 8.45753L15.9999 15.0572L9.40028 8.45753Z" fill="white"/>
</svg>
