<svg width="24" height="24" viewBox="0 0 24 24" fill="none" xmlns="http://www.w3.org/2000/svg">
<path fill-rule="evenodd" clip-rule="evenodd" d="M11.9823 0C18.6118 0 24 5.35314 24 11.9823C24 18.6115 18.6113 24 11.9823 24C5.35335 24 0 18.6113 0 11.9823C0 5.35335 5.35314 0 11.9823 0ZM3.89973 5.67239C3.89973 5.67239 2.41072 7.30316 2.26895 6.91319C2.12719 6.52322 2.30435 5.14059 3.33255 4.5734C4.32515 4.00622 5.53051 4.64441 6.41673 4.39621C7.3385 4.14801 7.37394 4.39621 7.58649 4.14801C7.79929 3.89981 7.83469 3.04903 8.26005 3.04903C8.68542 3.04903 9.04005 3.08443 9.18182 2.97803C9.35902 2.87162 9.64262 2.30446 9.89083 2.09186C10.1744 1.91466 10.6708 1.38285 11.167 1.59546C11.6634 1.84366 12.656 2.41085 12.656 2.87166C12.656 3.33246 11.876 3.58067 11.6634 3.36805C11.4862 3.11986 11.7698 4.21883 11.3444 4.32527C10.8836 4.39627 10.3872 3.54527 10.1391 3.47449C9.89088 3.43909 9.35908 3.58089 9.25291 3.79348C9.11112 4.00628 8.68573 4.00628 8.47291 4.28988C8.26011 4.57347 7.55114 4.71527 7.48031 5.17604C7.40931 5.67244 7.65751 6.13326 7.9057 5.88505C8.1893 5.67225 8.57927 4.60886 9.14651 4.71529C9.67831 4.82169 10.8127 5.60146 10.6709 6.09787C10.5291 6.55866 10.5645 7.26763 10.1037 6.91326C9.67833 6.52326 9.14651 6.70045 9.43016 7.09045C9.67835 7.48045 9.21735 7.55125 8.65016 8.01222C8.08297 8.47301 6.87755 9.18198 6.80678 9.67839C6.73577 10.1748 6.84218 10.4938 6.45218 10.5292C6.06218 10.6002 5.92038 9.92659 5.6014 10.1038C5.28241 10.281 4.18344 10.6002 4.11239 11.2028C4.07699 11.8053 4.07699 12.3017 4.3252 12.4081C4.60879 12.5145 5.49496 11.1673 5.84959 11.2384C6.20419 11.2738 6.84219 11.203 6.73576 11.4512C6.59396 11.664 5.42418 12.1956 5.67217 12.692C5.88497 13.1884 6.02677 13.5427 6.41656 13.6492C6.77116 13.7556 7.23195 13.5428 7.48016 13.2946C7.76375 13.011 8.26016 12.5146 9.39453 12.5502C10.5643 12.6212 11.6989 12.4792 12.5497 13.401C13.4005 14.2871 13.8969 14.4645 13.9677 15.0671C14.0387 15.7053 14.2159 16.4143 13.8259 16.6269C13.4713 16.8397 13.3295 16.9459 13.1877 17.4777C13.0105 18.0449 13.1877 18.0095 12.9041 18.7185C12.6559 19.3921 12.5495 19.2857 12.4077 19.9239C12.2305 20.5974 11.9469 20.81 12.2305 21.3774C12.4787 21.98 13.8259 22.441 13.3649 22.6536C12.8685 22.8664 10.2807 21.3774 9.85532 20.2074C9.42993 19.0731 8.61452 18.0095 8.15377 17.903C7.72837 17.7966 6.66476 17.0169 6.80659 16.0951C6.98378 15.1733 7.37377 14.606 6.91299 14.4643C6.48759 14.2871 5.77862 14.2161 5.5658 13.7553C5.38861 13.2945 5.2112 13.3653 4.8214 13.2235C4.43141 13.1171 3.65165 13.2589 3.3324 11.8763C3.0134 10.4583 2.30441 9.35935 2.9424 8.61474C3.58058 7.87034 3.97039 7.37393 4.006 7.05495C4.077 6.77135 3.89973 5.67239 3.89973 5.67239ZM13.9678 0.638445C17.052 1.20563 19.711 2.97823 21.4831 5.4244C20.7387 5.318 19.8523 4.999 19.6041 4.85721C19.1787 4.53822 18.6824 4.89261 18.3988 5.03441C18.0798 5.14081 18.2216 6.3106 18.5406 6.73596C18.8596 7.16136 19.7459 7.16136 19.7814 6.73596C19.8168 6.31057 19.3206 5.81419 19.5686 5.8498C19.8168 5.88519 21.1283 6.16879 21.1283 6.16879C21.1283 6.16879 21.1283 6.73597 21.3765 7.26777C21.6247 7.83496 21.9437 7.94134 22.4045 8.43753C22.8653 8.93393 22.1563 10.6001 22.2627 11.1673C22.3691 11.7699 22.3691 12.1245 22.5817 12.9753C22.7945 13.8261 21.3055 17.9738 20.8091 18.4348C20.2773 18.8956 20.5255 17.0522 20.6319 16.5204C20.7383 15.9886 20.1711 15.4214 20.1001 14.677C20.0647 13.9326 19.9937 13.5427 19.6747 12.8337C19.3558 12.0893 19.8876 11.8057 19.3558 11.5575C18.824 11.2739 17.5478 12.7983 16.9096 12.8337C16.307 12.9047 15.3142 11.5575 14.9598 11.2029C14.6052 10.8483 14.0381 11.1319 13.6126 11.0611C13.1873 10.9901 13.4354 9.43032 13.5772 9.74951C13.7544 10.0685 14.2863 9.35952 14.499 8.50871C14.6762 7.69332 15.527 7.19713 15.7398 6.66533C15.9526 6.13353 15.3144 5.60174 14.8537 5.45997C14.3929 5.35357 13.6483 4.92817 13.4357 4.46737C13.2585 4.00657 13.8611 4.29017 14.4637 4.39636C15.0309 4.50277 14.6055 3.89997 14.3927 3.4746C14.2155 3.0138 13.8609 3.40359 13.3647 2.9782C12.8683 2.5528 13.4711 2.41101 14.0737 2.4818C14.6409 2.5528 14.3927 2.16281 14.3219 1.87923C14.2865 1.59563 13.9678 0.673888 13.9678 0.638445Z" fill="#489CB7"/>
</svg>
