<svg width="215" height="137" viewBox="0 0 215 137" fill="none" xmlns="http://www.w3.org/2000/svg">
<rect width="215" height="137" fill="url(#paint0_radial_4875_4562)"/>
<path d="M109.746 72.7492C108.769 72.7492 107.864 72.4958 107.031 71.989C106.199 71.4822 105.533 70.8034 105.036 69.9528C104.547 69.093 104.303 68.1564 104.303 67.1428L104.357 53.2423C104.357 53.1699 104.393 53.1337 104.466 53.1337H107.588C107.66 53.1337 107.696 53.1699 107.696 53.2423V67.1428C107.696 67.7672 107.895 68.3012 108.294 68.7446C108.692 69.179 109.176 69.3962 109.746 69.3962C110.343 69.3962 110.841 69.179 111.239 68.7446C111.638 68.3012 111.837 67.7672 111.837 67.1428V53.2423C111.837 53.1699 111.873 53.1337 111.945 53.1337H115.067C115.14 53.1337 115.176 53.1699 115.176 53.2423L115.23 67.1428C115.23 68.1654 114.986 69.1066 114.497 69.9663C114 70.817 113.339 71.4958 112.515 72.0025C111.692 72.5003 110.769 72.7492 109.746 72.7492ZM121.707 72.4777H118.924C118.779 72.4777 118.707 72.4143 118.707 72.2876L118.68 53.3509C118.68 53.2061 118.752 53.1337 118.897 53.1337H121.408L126.105 64.0885L125.969 53.3509C125.969 53.2061 126.051 53.1337 126.213 53.1337H128.969C129.078 53.1337 129.132 53.2061 129.132 53.3509L129.159 72.3148C129.159 72.4234 129.114 72.4777 129.023 72.4777H126.58L121.761 62.2423L121.965 72.2605C121.965 72.4053 121.879 72.4777 121.707 72.4777ZM137.957 72.4505L132.975 72.4777C132.884 72.4777 132.839 72.4324 132.839 72.3419L132.893 53.2423C132.893 53.1699 132.93 53.1337 133.002 53.1337L138.201 53.1066C139.233 53.0794 140.165 53.3147 140.998 53.8124C141.839 54.3102 142.509 54.9844 143.007 55.8351C143.513 56.6767 143.767 57.6088 143.767 58.6315V66.6134C143.767 67.6813 143.509 68.6586 142.993 69.5455C142.468 70.4234 141.771 71.1247 140.903 71.6496C140.034 72.1654 139.052 72.4324 137.957 72.4505ZM138.201 56.4324L136.26 56.4595L136.233 69.0568H137.957C138.645 69.0568 139.224 68.817 139.694 68.3374C140.165 67.8577 140.4 67.2831 140.4 66.6134V58.6043C140.4 58.0161 140.183 57.5048 139.749 57.0704C139.314 56.6269 138.798 56.4143 138.201 56.4324ZM156.311 72.4777H147.325C147.252 72.4777 147.216 72.4324 147.216 72.3419L147.243 53.2423C147.243 53.1699 147.279 53.1337 147.352 53.1337H156.284C156.356 53.1337 156.393 53.179 156.393 53.2695V56.3781C156.393 56.4505 156.356 56.4867 156.284 56.4867H150.583V60.8306H156.284C156.356 60.8306 156.393 60.8668 156.393 60.9392L156.42 64.0885C156.42 64.1609 156.383 64.1971 156.311 64.1971H150.583V69.0568H156.311C156.383 69.0568 156.42 69.1021 156.42 69.1926V72.3691C156.42 72.4415 156.383 72.4777 156.311 72.4777ZM163.412 72.4777H160.263C160.19 72.4777 160.154 72.4324 160.154 72.3419L160.208 53.2423C160.208 53.1699 160.244 53.1337 160.317 53.1337H165.937C166.941 53.1337 167.864 53.3781 168.706 53.8667C169.548 54.3554 170.217 55.0115 170.715 55.8351C171.222 56.6586 171.475 57.5907 171.475 58.6315C171.475 59.3102 171.371 59.9256 171.163 60.4776C170.955 61.0297 170.711 61.4957 170.43 61.8758C170.159 62.2559 169.91 62.5365 169.683 62.7174C170.688 63.8306 171.19 65.1383 171.19 66.6405L171.217 72.3419C171.217 72.4324 171.172 72.4777 171.082 72.4777H167.932C167.86 72.4777 167.824 72.4505 167.824 72.3962V66.6405C167.824 65.9709 167.588 65.3917 167.118 64.903C166.647 64.4143 166.068 64.1699 165.38 64.1699H163.548L163.52 72.3419C163.52 72.4324 163.484 72.4777 163.412 72.4777ZM165.937 56.4595H163.548V60.8306H165.937C166.507 60.8306 167.014 60.6179 167.457 60.1926C167.91 59.7672 168.136 59.2468 168.136 58.6315C168.136 58.0432 167.919 57.5364 167.484 57.1111C167.05 56.6767 166.534 56.4595 165.937 56.4595ZM107.02 87.6257C106.482 87.6257 105.986 87.4875 105.532 87.2111C105.083 86.9347 104.722 86.5669 104.451 86.1078C104.184 85.6438 104.051 85.1354 104.051 84.5825V83.8865C104.051 83.8322 104.076 83.8051 104.125 83.8051H105.828C105.867 83.8051 105.887 83.8322 105.887 83.8865V84.5825C105.887 84.9133 105.998 85.1996 106.22 85.4415C106.443 85.6784 106.709 85.7969 107.02 85.7969C107.336 85.7969 107.605 85.6759 107.827 85.4341C108.049 85.1872 108.16 84.9034 108.16 84.5825C108.16 84.2123 107.918 83.889 107.435 83.6126C107.356 83.5632 107.252 83.504 107.124 83.4349C107 83.3608 106.852 83.2769 106.679 83.1831C106.507 83.0893 106.339 82.998 106.176 82.9092C106.013 82.8154 105.855 82.7265 105.702 82.6426C105.149 82.3168 104.737 81.9096 104.466 81.4209C104.199 80.9272 104.066 80.3744 104.066 79.7623C104.066 79.1996 104.204 78.6911 104.48 78.237C104.757 77.7878 105.117 77.4324 105.561 77.1708C106.011 76.9042 106.497 76.7709 107.02 76.7709C107.558 76.7709 108.052 76.9042 108.501 77.1708C108.95 77.4423 109.308 77.8026 109.575 78.2518C109.846 78.701 109.982 79.2045 109.982 79.7623V81.0062C109.982 81.0457 109.962 81.0655 109.923 81.0655H108.22C108.18 81.0655 108.16 81.0457 108.16 81.0062L108.146 79.7623C108.146 79.4069 108.034 79.1181 107.812 78.896C107.59 78.6738 107.326 78.5628 107.02 78.5628C106.709 78.5628 106.443 78.6813 106.22 78.9182C105.998 79.1551 105.887 79.4365 105.887 79.7623C105.887 80.093 105.956 80.3695 106.095 80.5916C106.238 80.8137 106.497 81.026 106.872 81.2284C106.911 81.2481 107.003 81.2975 107.146 81.3764C107.289 81.4554 107.447 81.5443 107.62 81.643C107.798 81.7368 107.958 81.8232 108.101 81.9022C108.244 81.9762 108.331 82.0206 108.36 82.0354C108.864 82.3168 109.261 82.6623 109.552 83.0721C109.849 83.4818 109.997 83.9853 109.997 84.5825C109.997 85.1601 109.863 85.6784 109.597 86.1375C109.325 86.5965 108.965 86.9594 108.516 87.2259C108.067 87.4925 107.568 87.6257 107.02 87.6257ZM111.49 87.4036L113.371 76.9856C113.38 76.9462 113.405 76.9264 113.445 76.9264H115.644C115.683 76.9264 115.708 76.9462 115.718 76.9856L117.524 87.4036C117.529 87.453 117.51 87.4777 117.465 87.4777H115.784C115.735 87.4777 115.708 87.453 115.703 87.4036L115.54 86.293H113.474L113.311 87.4036C113.306 87.453 113.282 87.4777 113.237 87.4777H111.549C111.51 87.4777 111.49 87.453 111.49 87.4036ZM114.615 80.4139L114.526 79.8511L114.459 80.4139L113.778 84.6714H115.236L114.615 80.4139ZM121.513 87.4777H119.795C119.756 87.4777 119.736 87.453 119.736 87.4036L119.765 76.9856C119.765 76.9462 119.785 76.9264 119.825 76.9264H121.676C121.715 76.9264 121.75 76.9462 121.779 76.9856L123.164 78.9848L124.541 76.9856C124.571 76.9462 124.608 76.9264 124.652 76.9264H126.511C126.555 76.9264 126.578 76.9462 126.578 76.9856L126.607 87.4036C126.607 87.453 126.587 87.4777 126.548 87.4777H124.83C124.791 87.4777 124.771 87.453 124.771 87.4036L124.756 79.666L123.164 81.9762L121.587 79.666L121.572 87.4036C121.572 87.453 121.552 87.4777 121.513 87.4777ZM130.921 87.4777H129.204C129.164 87.4777 129.144 87.453 129.144 87.4036L129.174 76.9856C129.174 76.9462 129.194 76.9264 129.233 76.9264H131.084C131.124 76.9264 131.158 76.9462 131.188 76.9856L132.573 78.9848L133.95 76.9856C133.979 76.9462 134.016 76.9264 134.061 76.9264H135.919C135.964 76.9264 135.986 76.9462 135.986 76.9856L136.016 87.4036C136.016 87.453 135.996 87.4777 135.956 87.4777H134.239C134.199 87.4777 134.179 87.453 134.179 87.4036L134.165 79.666L132.573 81.9762L130.995 79.666L130.981 87.4036C130.981 87.453 130.961 87.4777 130.921 87.4777ZM138.042 87.4036L139.923 76.9856C139.933 76.9462 139.957 76.9264 139.997 76.9264H142.196C142.235 76.9264 142.26 76.9462 142.27 76.9856L144.077 87.4036C144.081 87.453 144.062 87.4777 144.017 87.4777H142.337C142.287 87.4777 142.26 87.453 142.255 87.4036L142.092 86.293H140.026L139.863 87.4036C139.859 87.453 139.834 87.4777 139.789 87.4777H138.101C138.062 87.4777 138.042 87.453 138.042 87.4036ZM141.167 80.4139L141.078 79.8511L141.011 80.4139L140.33 84.6714H141.789L141.167 80.4139ZM154.727 87.4777H153.016C152.972 87.4777 152.949 87.453 152.949 87.4036V78.7553H150.98C150.931 78.7553 150.906 78.7306 150.906 78.6813L150.921 76.9856C150.921 76.9462 150.94 76.9264 150.98 76.9264H156.741C156.795 76.9264 156.822 76.9462 156.822 76.9856V78.6813C156.822 78.7306 156.802 78.7553 156.763 78.7553H154.771L154.786 87.4036C154.786 87.453 154.766 87.4777 154.727 87.4777ZM157.397 87.4036L159.278 76.9856C159.288 76.9462 159.312 76.9264 159.352 76.9264H161.551C161.59 76.9264 161.615 76.9462 161.625 76.9856L163.432 87.4036C163.437 87.453 163.417 87.4777 163.372 87.4777H161.692C161.642 87.4777 161.615 87.453 161.61 87.4036L161.447 86.293H159.381L159.219 87.4036C159.214 87.453 159.189 87.4777 159.144 87.4777H157.456C157.417 87.4777 157.397 87.453 157.397 87.4036ZM160.522 80.4139L160.433 79.8511L160.366 80.4139L159.685 84.6714H161.144L160.522 80.4139ZM167.42 87.4777H165.702C165.663 87.4777 165.643 87.453 165.643 87.4036L165.673 77.0005C165.673 76.9511 165.692 76.9264 165.732 76.9264H167.435C167.474 76.9264 167.494 76.9511 167.494 77.0005V80.5916L169.871 76.9856C169.91 76.9462 169.947 76.9264 169.982 76.9264H171.722C171.766 76.9264 171.776 76.9462 171.752 76.9856L169.131 81.1691L172.07 87.4184C172.095 87.4579 172.07 87.4777 171.996 87.4777H170.145C170.096 87.4777 170.066 87.4579 170.056 87.4184L168.005 82.961L167.479 83.7903V87.4036C167.479 87.453 167.46 87.4777 167.42 87.4777Z" fill="white"/>
<path d="M61.5499 69.8559C63.2446 73.3233 73.136 81.5865 79.8368 86.9726C80.1727 87.2426 80.5893 87.3881 81.0203 87.3881H89.589C90.6358 87.3881 91.4845 86.5394 91.4845 85.4925V65.5629C91.4845 64.7536 92.1406 64.0975 92.9499 64.0975V64.0975C94.2637 64.0975 94.9137 62.5019 93.9738 61.5838L73.1696 41.2632C72.4457 40.5561 71.2939 40.5424 70.5533 41.2321L48.9752 61.3268C47.9119 62.317 48.6126 64.0975 50.0656 64.0975V64.0975C50.9492 64.0975 51.6655 64.8138 51.6655 65.6974V85.4925C51.6655 86.5394 52.5141 87.3881 53.561 87.3881H62.2339C62.7232 87.3881 63.1922 87.199 63.5481 86.8633C70.0682 80.715 79.9997 73.1363 81.6402 69.8559C83.3278 66.4816 83.6091 62.6374 80.3545 60.503C78.2315 59.1108 74.3161 60.5134 72.5288 61.2822C71.9386 61.5361 71.2595 61.5193 70.6777 61.2469C68.9926 60.4579 65.3577 59.0782 62.9562 60.503C59.7418 62.4103 59.811 66.2982 61.5499 69.8559Z" stroke="white" stroke-width="3.79104" stroke-linecap="round" stroke-linejoin="round"/>
<defs>
<radialGradient id="paint0_radial_4875_4562" cx="0" cy="0" r="1" gradientUnits="userSpaceOnUse" gradientTransform="translate(-25.5 -38.5) rotate(39.4417) scale(211.713 332.251)">
<stop stop-color="#004664"/>
<stop offset="1" stop-color="#004664"/>
</radialGradient>
</defs>
</svg>
