<svg width="130" height="90" viewBox="-25 0 200 60" fill="none" xmlns="http://www.w3.org/2000/svg">
<path d="M63.7461 34.7492C62.7687 34.7492 61.8638 34.4958 61.0312 33.989C60.1986 33.4822 59.5334 32.8034 59.0357 31.9528C58.547 31.093 58.3027 30.1564 58.3027 29.1428L58.357 15.2423C58.357 15.1699 58.3932 15.1337 58.4656 15.1337H61.5877C61.6601 15.1337 61.6963 15.1699 61.6963 15.2423V29.1428C61.6963 29.7672 61.8954 30.3012 62.2936 30.7446C62.6918 31.179 63.176 31.3962 63.7461 31.3962C64.3434 31.3962 64.8412 31.179 65.2393 30.7446C65.6375 30.3012 65.8366 29.7672 65.8366 29.1428V15.2423C65.8366 15.1699 65.8728 15.1337 65.9452 15.1337H69.0674C69.1398 15.1337 69.176 15.1699 69.176 15.2423L69.2303 29.1428C69.2303 30.1654 68.986 31.1066 68.4973 31.9663C67.9995 32.817 67.3389 33.4958 66.5154 34.0025C65.6918 34.5003 64.7688 34.7492 63.7461 34.7492ZM75.7067 34.4777H72.9239C72.7791 34.4777 72.7067 34.4143 72.7067 34.2876L72.6795 15.3509C72.6795 15.2061 72.7519 15.1337 72.8967 15.1337H75.408L80.1049 26.0885L79.9691 15.3509C79.9691 15.2061 80.0506 15.1337 80.2135 15.1337H82.9691C83.0777 15.1337 83.132 15.2061 83.132 15.3509L83.1592 34.3148C83.1592 34.4234 83.1139 34.4777 83.0234 34.4777H80.58L75.761 24.2423L75.9646 34.2605C75.9646 34.4053 75.8786 34.4777 75.7067 34.4777ZM91.9568 34.4505L86.9749 34.4777C86.8844 34.4777 86.8392 34.4324 86.8392 34.3419L86.8935 15.2423C86.8935 15.1699 86.9297 15.1337 87.0021 15.1337L92.2012 15.1066C93.2329 15.0794 94.165 15.3147 94.9976 15.8124C95.8392 16.3102 96.5089 16.9844 97.0066 17.8351C97.5134 18.6767 97.7668 19.6088 97.7668 20.6315V28.6134C97.7668 29.6813 97.5089 30.6586 96.993 31.5455C96.4682 32.4234 95.7713 33.1247 94.9025 33.6496C94.0338 34.1654 93.0519 34.4324 91.9568 34.4505ZM92.2012 18.4324L90.26 18.4595L90.2328 31.0568H91.9568C92.6446 31.0568 93.2238 30.817 93.6944 30.3374C94.165 29.8577 94.4003 29.2831 94.4003 28.6134V20.6043C94.4003 20.0161 94.1831 19.5048 93.7487 19.0704C93.3143 18.6269 92.7985 18.4143 92.2012 18.4324ZM110.311 34.4777H101.325C101.252 34.4777 101.216 34.4324 101.216 34.3419L101.243 15.2423C101.243 15.1699 101.279 15.1337 101.352 15.1337H110.284C110.356 15.1337 110.393 15.179 110.393 15.2695V18.3781C110.393 18.4505 110.356 18.4867 110.284 18.4867H104.583V22.8306H110.284C110.356 22.8306 110.393 22.8668 110.393 22.9392L110.42 26.0885C110.42 26.1609 110.383 26.1971 110.311 26.1971H104.583V31.0568H110.311C110.383 31.0568 110.42 31.1021 110.42 31.1926V34.3691C110.42 34.4415 110.383 34.4777 110.311 34.4777ZM117.412 34.4777H114.263C114.19 34.4777 114.154 34.4324 114.154 34.3419L114.208 15.2423C114.208 15.1699 114.244 15.1337 114.317 15.1337H119.937C120.941 15.1337 121.864 15.3781 122.706 15.8667C123.548 16.3554 124.217 17.0115 124.715 17.8351C125.222 18.6586 125.475 19.5907 125.475 20.6315C125.475 21.3102 125.371 21.9256 125.163 22.4776C124.955 23.0297 124.711 23.4957 124.43 23.8758C124.159 24.2559 123.91 24.5365 123.683 24.7174C124.688 25.8306 125.19 27.1383 125.19 28.6405L125.217 34.3419C125.217 34.4324 125.172 34.4777 125.082 34.4777H121.932C121.86 34.4777 121.824 34.4505 121.824 34.3962V28.6405C121.824 27.9709 121.588 27.3917 121.118 26.903C120.647 26.4143 120.068 26.1699 119.38 26.1699H117.548L117.52 34.3419C117.52 34.4324 117.484 34.4777 117.412 34.4777ZM119.937 18.4595H117.548V22.8306H119.937C120.507 22.8306 121.014 22.6179 121.457 22.1926C121.91 21.7672 122.136 21.2468 122.136 20.6315C122.136 20.0432 121.919 19.5364 121.484 19.1111C121.05 18.6767 120.534 18.4595 119.937 18.4595ZM61.0201 49.6257C60.482 49.6257 59.9859 49.4875 59.5318 49.2111C59.0826 48.9347 58.7223 48.5669 58.4508 48.1078C58.1842 47.6438 58.0509 47.1354 58.0509 46.5825V45.8865C58.0509 45.8322 58.0756 45.8051 58.125 45.8051H59.828C59.8675 45.8051 59.8872 45.8322 59.8872 45.8865V46.5825C59.8872 46.9133 59.9983 47.1996 60.2204 47.4415C60.4425 47.6784 60.7091 47.7969 61.0201 47.7969C61.336 47.7969 61.605 47.6759 61.8272 47.4341C62.0493 47.1872 62.1604 46.9034 62.1604 46.5825C62.1604 46.2123 61.9185 45.889 61.4347 45.6126C61.3557 45.5632 61.2521 45.504 61.1237 45.4349C61.0003 45.3608 60.8522 45.2769 60.6795 45.1831C60.5067 45.0893 60.3389 44.998 60.176 44.9092C60.0131 44.8154 59.8551 44.7265 59.7021 44.6426C59.1492 44.3168 58.7371 43.9096 58.4656 43.4209C58.199 42.9272 58.0657 42.3744 58.0657 41.7623C58.0657 41.1996 58.2039 40.6911 58.4804 40.237C58.7568 39.7878 59.1172 39.4324 59.5614 39.1708C60.0106 38.9042 60.4968 38.7709 61.0201 38.7709C61.5581 38.7709 62.0518 38.9042 62.501 39.1708C62.9502 39.4423 63.308 39.8026 63.5746 40.2518C63.8461 40.701 63.9818 41.2045 63.9818 41.7623V43.0062C63.9818 43.0457 63.9621 43.0655 63.9226 43.0655H62.2196C62.1801 43.0655 62.1604 43.0457 62.1604 43.0062L62.1455 41.7623C62.1455 41.4069 62.0345 41.1181 61.8124 40.896C61.5902 40.6738 61.3261 40.5628 61.0201 40.5628C60.7091 40.5628 60.4425 40.6813 60.2204 40.9182C59.9983 41.1551 59.8872 41.4365 59.8872 41.7623C59.8872 42.093 59.9563 42.3695 60.0945 42.5916C60.2377 42.8137 60.4968 43.026 60.872 43.2284C60.9115 43.2481 61.0028 43.2975 61.146 43.3764C61.2891 43.4554 61.4471 43.5443 61.6198 43.643C61.7975 43.7368 61.958 43.8232 62.1011 43.9022C62.2443 43.9762 62.3307 44.0206 62.3603 44.0354C62.8638 44.3168 63.2611 44.6623 63.5524 45.0721C63.8486 45.4818 63.9966 45.9853 63.9966 46.5825C63.9966 47.1601 63.8634 47.6784 63.5968 48.1375C63.3253 48.5965 62.965 48.9594 62.5158 49.2259C62.0666 49.4925 61.568 49.6257 61.0201 49.6257ZM65.4899 49.4036L67.3706 38.9856C67.3804 38.9462 67.4051 38.9264 67.4446 38.9264H69.6437C69.6832 38.9264 69.7079 38.9462 69.7178 38.9856L71.5244 49.4036C71.5294 49.453 71.5096 49.4777 71.4652 49.4777H69.7844C69.735 49.4777 69.7079 49.453 69.703 49.4036L69.5401 48.293H67.4742L67.3113 49.4036C67.3064 49.453 67.2817 49.4777 67.2373 49.4777H65.5491C65.5096 49.4777 65.4899 49.453 65.4899 49.4036ZM68.6145 42.4139L68.5257 41.8511L68.459 42.4139L67.7778 46.6714H69.2365L68.6145 42.4139ZM75.5129 49.4777H73.7951C73.7556 49.4777 73.7359 49.453 73.7359 49.4036L73.7655 38.9856C73.7655 38.9462 73.7852 38.9264 73.8247 38.9264H75.6758C75.7153 38.9264 75.7499 38.9462 75.7795 38.9856L77.1641 40.9848L78.5413 38.9856C78.5709 38.9462 78.608 38.9264 78.6524 38.9264H80.5109C80.5553 38.9264 80.5775 38.9462 80.5775 38.9856L80.6071 49.4036C80.6071 49.453 80.5874 49.4777 80.5479 49.4777H78.8301C78.7906 49.4777 78.7709 49.453 78.7709 49.4036L78.7561 41.666L77.1641 43.9762L75.587 41.666L75.5722 49.4036C75.5722 49.453 75.5524 49.4777 75.5129 49.4777ZM84.9214 49.4777H83.2036C83.1641 49.4777 83.1444 49.453 83.1444 49.4036L83.174 38.9856C83.174 38.9462 83.1937 38.9264 83.2332 38.9264H85.0843C85.1238 38.9264 85.1584 38.9462 85.188 38.9856L86.5726 40.9848L87.9498 38.9856C87.9794 38.9462 88.0165 38.9264 88.0609 38.9264H89.9194C89.9638 38.9264 89.986 38.9462 89.986 38.9856L90.0157 49.4036C90.0157 49.453 89.9959 49.4777 89.9564 49.4777H88.2386C88.1991 49.4777 88.1794 49.453 88.1794 49.4036L88.1646 41.666L86.5726 43.9762L84.9955 41.666L84.9807 49.4036C84.9807 49.453 84.9609 49.4777 84.9214 49.4777ZM92.042 49.4036L93.9227 38.9856C93.9326 38.9462 93.9573 38.9264 93.9967 38.9264H96.1958C96.2353 38.9264 96.26 38.9462 96.2699 38.9856L98.0766 49.4036C98.0815 49.453 98.0617 49.4777 98.0173 49.4777H96.3365C96.2872 49.4777 96.26 49.453 96.2551 49.4036L96.0922 48.293H94.0264L93.8635 49.4036C93.8585 49.453 93.8338 49.4777 93.7894 49.4777H92.1012C92.0617 49.4777 92.042 49.453 92.042 49.4036ZM95.1666 42.4139L95.0778 41.8511L95.0111 42.4139L94.3299 46.6714H95.7886L95.1666 42.4139ZM108.727 49.4777H107.016C106.972 49.4777 106.949 49.453 106.949 49.4036V40.7553H104.98C104.931 40.7553 104.906 40.7306 104.906 40.6813L104.921 38.9856C104.921 38.9462 104.94 38.9264 104.98 38.9264H110.741C110.795 38.9264 110.822 38.9462 110.822 38.9856V40.6813C110.822 40.7306 110.802 40.7553 110.763 40.7553H108.771L108.786 49.4036C108.786 49.453 108.766 49.4777 108.727 49.4777ZM111.397 49.4036L113.278 38.9856C113.288 38.9462 113.312 38.9264 113.352 38.9264H115.551C115.59 38.9264 115.615 38.9462 115.625 38.9856L117.432 49.4036C117.437 49.453 117.417 49.4777 117.372 49.4777H115.692C115.642 49.4777 115.615 49.453 115.61 49.4036L115.447 48.293H113.381L113.219 49.4036C113.214 49.453 113.189 49.4777 113.144 49.4777H111.456C111.417 49.4777 111.397 49.453 111.397 49.4036ZM114.522 42.4139L114.433 41.8511L114.366 42.4139L113.685 46.6714H115.144L114.522 42.4139ZM121.42 49.4777H119.702C119.663 49.4777 119.643 49.453 119.643 49.4036L119.673 39.0005C119.673 38.9511 119.692 38.9264 119.732 38.9264H121.435C121.474 38.9264 121.494 38.9511 121.494 39.0005V42.5916L123.871 38.9856C123.91 38.9462 123.947 38.9264 123.982 38.9264H125.722C125.766 38.9264 125.776 38.9462 125.752 38.9856L123.131 43.1691L126.07 49.4184C126.095 49.4579 126.07 49.4777 125.996 49.4777H124.145C124.096 49.4777 124.066 49.4579 124.056 49.4184L122.005 44.961L121.479 45.7903V49.4036C121.479 49.453 121.46 49.4777 121.42 49.4777Z" fill="white"/>
<path d="M15.5499 31.8559C17.2446 35.3233 27.136 43.5865 33.8368 48.9726C34.1727 49.2426 34.5893 49.3881 35.0203 49.3881H43.589C44.6358 49.3881 45.4845 48.5394 45.4845 47.4925V27.5629C45.4845 26.7536 46.1406 26.0975 46.9499 26.0975V26.0975C48.2637 26.0975 48.9137 24.5019 47.9738 23.5838L27.1696 3.26322C26.4457 2.5561 25.2939 2.54238 24.5533 3.23206L2.97524 23.3268C1.91195 24.317 2.61262 26.0975 4.06558 26.0975V26.0975C4.94918 26.0975 5.66547 26.8138 5.66547 27.6974V47.4925C5.66547 48.5394 6.51413 49.3881 7.561 49.3881H16.2339C16.7232 49.3881 17.1922 49.199 17.5481 48.8633C24.0682 42.715 33.9997 35.1363 35.6402 31.8559C37.3278 28.4816 37.6091 24.6374 34.3545 22.503C32.2315 21.1108 28.3161 22.5134 26.5288 23.2822C25.9386 23.5361 25.2595 23.5193 24.6777 23.2469C22.9926 22.4579 19.3577 21.0782 16.9562 22.503C13.7418 24.4103 13.811 28.2982 15.5499 31.8559Z" stroke="white" stroke-width="3.79104" stroke-linecap="round" stroke-linejoin="round"/>
</svg>
