<svg width="24" height="24" viewBox="0 0 24 24" fill="none" xmlns="http://www.w3.org/2000/svg">
<path d="M17.8761 16.9304L13.3411 12.3955C13.2603 12.3146 13.1548 12.2724 13.0423 12.2724H12.6802C13.886 10.9682 14.6243 9.22806 14.6243 7.31214C14.6243 3.27289 11.3514 0 7.31214 0C3.27289 0 0 3.27289 0 7.31214C0 11.3514 3.27289 14.6243 7.31214 14.6243C9.22806 14.6243 10.9682 13.886 12.2724 12.6838V13.0423C12.2724 13.1548 12.3181 13.2603 12.3955 13.3411L16.9304 17.8761C17.0956 18.0413 17.3628 18.0413 17.528 17.8761L17.8761 17.528C18.0413 17.3628 18.0413 17.0956 17.8761 16.9304ZM7.31214 13.4993C3.89161 13.4993 1.12495 10.7327 1.12495 7.31214C1.12495 3.89161 3.89161 1.12495 7.31214 1.12495C10.7327 1.12495 13.4993 3.89161 13.4993 7.31214C13.4993 10.7327 10.7327 13.4993 7.31214 13.4993Z" fill="#489CB7"/>
</svg>
