<svg width="318" height="32" viewBox="0 0 318 32" fill="none" xmlns="http://www.w3.org/2000/svg">
<g clip-path="url(#clip0_5329_6776)">
<path d="M32.4658 16.0978C32.4658 7.20722 25.3024 0 16.4658 0C7.62926 0 0.46582 7.20722 0.46582 16.0978C0.46582 24.1325 6.31676 30.7924 13.9658 32V20.751H9.90332V16.0978H13.9658V12.5512C13.9658 8.51673 16.3546 6.2882 20.0093 6.2882C21.7593 6.2882 23.5908 6.60261 23.5908 6.60261V10.5642H21.5733C19.5858 10.5642 18.9658 11.8051 18.9658 13.0794V16.0978H23.4033L22.6939 20.751H18.9658V32C26.6149 30.7924 32.4658 24.1325 32.4658 16.0978Z" fill="#EDAF52"/>
</g>
<g clip-path="url(#clip1_5329_6776)">
<path d="M72.4658 2.88341C76.7383 2.88341 77.2438 2.89992 78.9313 2.97677C80.4912 3.0479 81.3385 3.30831 81.9024 3.52742C82.5983 3.78362 83.2277 4.19275 83.7443 4.72463C84.2762 5.24125 84.6853 5.87067 84.9415 6.56648C85.1606 7.13047 85.421 7.97773 85.4922 9.53759C85.569 11.2251 85.5855 11.7307 85.5855 16.0031C85.5855 20.2756 85.569 20.7812 85.4922 22.4687C85.421 24.0285 85.1606 24.8758 84.9415 25.4398C84.675 26.1296 84.2672 26.7562 83.7443 27.2791C83.2214 27.802 82.5949 28.2098 81.905 28.4763C81.341 28.6954 80.4937 28.9558 78.9339 29.027C77.247 29.1038 76.7408 29.1203 72.4683 29.1203C68.1959 29.1203 67.6897 29.1038 66.0028 29.027C64.4429 28.9558 63.5957 28.6954 63.0317 28.4763C62.3359 28.2201 61.7065 27.811 61.1899 27.2791C60.658 26.7625 60.2489 26.133 59.9927 25.4372C59.7735 24.8733 59.5131 24.026 59.442 22.4661C59.3652 20.7786 59.3486 20.2731 59.3486 16.0006C59.3486 11.7281 59.3652 11.2226 59.442 9.53505C59.5131 7.97518 59.7735 7.12793 59.9927 6.56394C60.2489 5.86813 60.658 5.23871 61.1899 4.72209C61.7065 4.19021 62.3359 3.78108 63.0317 3.52488C63.5957 3.30576 64.4429 3.04536 66.0028 2.97423C67.6903 2.89738 68.1959 2.88087 72.4683 2.88087L72.4658 2.88341ZM72.4683 -0.00195312C68.1228 -0.00195312 67.5779 0.0164654 65.8713 0.0945855C64.1648 0.172706 63.0025 0.445173 61.9863 0.840219C60.9184 1.24222 59.9509 1.87204 59.1511 2.68588C58.3373 3.48568 57.7074 4.45317 57.3055 5.52107C56.9104 6.53727 56.6398 7.70208 56.5624 9.40485C56.4849 11.1076 56.4658 11.6551 56.4658 16.0006C56.4658 20.3461 56.4842 20.891 56.5624 22.5976C56.6405 24.3042 56.9104 25.4639 57.3055 26.4801C57.7076 27.5476 58.3374 28.5146 59.1511 29.314C59.9506 30.1284 60.9182 30.7584 61.9863 31.1603C63.0025 31.556 64.1673 31.8266 65.8701 31.9041C67.5728 31.9815 68.1216 32.0006 72.4671 32.0006C76.8126 32.0006 77.3575 31.9822 79.0641 31.9041C80.7707 31.8259 81.9291 31.556 82.9453 31.1603C84.0086 30.7495 84.9742 30.121 85.7802 29.315C86.5862 28.509 87.2147 27.5434 87.6255 26.4801C88.0212 25.4639 88.2918 24.2991 88.3693 22.5963C88.4467 20.8936 88.4658 20.3448 88.4658 15.9993C88.4658 11.6538 88.4474 11.1089 88.3693 9.40231C88.2911 7.69573 88.0212 6.53727 87.6255 5.52107C87.2238 4.45354 86.5942 3.48644 85.7805 2.68716C84.9808 1.87286 84.0133 1.24259 82.9453 0.840219C81.9291 0.445173 80.7643 0.174611 79.0615 0.097126C77.3588 0.019641 76.8113 0.000587362 72.4658 0.000587362L72.4683 -0.00195312Z" fill="#EDAF52"/>
<path d="M72.4659 7.7832C70.841 7.7832 69.2525 8.26506 67.9014 9.16784C66.5503 10.0706 65.4973 11.3538 64.8754 12.855C64.2536 14.3563 64.0909 16.0083 64.4079 17.602C64.7249 19.1957 65.5074 20.6597 66.6564 21.8087C67.8054 22.9577 69.2694 23.7402 70.8631 24.0572C72.4568 24.3742 74.1088 24.2115 75.6101 23.5897C77.1113 22.9678 78.3945 21.9148 79.2973 20.5637C80.2 19.2126 80.6819 17.6241 80.6819 15.9991C80.682 14.9202 80.4695 13.8518 80.0567 12.8549C79.6438 11.8581 79.0386 10.9523 78.2757 10.1894C77.5127 9.42647 76.607 8.82129 75.6102 8.40843C74.6133 7.99557 73.5449 7.78312 72.4659 7.7832ZM72.4659 21.3342C71.4108 21.3342 70.3793 21.0213 69.502 20.4351C68.6246 19.8488 67.9408 19.0156 67.537 18.0408C67.1332 17.0659 67.0276 15.9932 67.2334 14.9583C67.4393 13.9234 67.9474 12.9728 68.6935 12.2267C69.4396 11.4806 70.3902 10.9725 71.4251 10.7666C72.46 10.5608 73.5327 10.6664 74.5076 11.0702C75.4824 11.474 76.3156 12.1578 76.9019 13.0352C77.4881 13.9125 77.801 14.944 77.801 15.9991C77.801 17.4141 77.2389 18.7711 76.2384 19.7716C75.2379 20.7721 73.8809 21.3342 72.4659 21.3342Z" fill="#EDAF52"/>
<path d="M81.0069 9.37901C82.0673 9.37901 82.9269 8.51941 82.9269 7.45904C82.9269 6.39866 82.0673 5.53906 81.0069 5.53906C79.9465 5.53906 79.0869 6.39866 79.0869 7.45904C79.0869 8.51941 79.9465 9.37901 81.0069 9.37901Z" fill="#EDAF52"/>
</g>
<g clip-path="url(#clip2_5329_6776)">
<path d="M148.157 29.9352C148.238 29.9361 148.318 29.9203 148.392 29.889C148.466 29.8576 148.533 29.8114 148.589 29.7531C148.644 29.6948 148.687 29.6257 148.715 29.5501C148.743 29.4745 148.755 29.394 148.75 29.3136C148.75 28.8728 148.484 28.6621 147.938 28.6621H147.057V30.9703H147.388V29.9641H147.796L147.805 29.9764L148.438 30.9703H148.792L148.112 29.9416L148.157 29.9352ZM147.774 29.704H147.389V28.9237H147.877C148.128 28.9237 148.415 28.9648 148.415 29.2945C148.415 29.6737 148.125 29.704 147.772 29.704" fill="#EDAF52"/>
<path d="M139.507 27.0419H134.804V19.6775C134.804 17.9214 134.773 15.6607 132.359 15.6607C129.909 15.6607 129.535 17.5741 129.535 19.5497V27.0414H124.832V11.8972H129.347V13.9668H129.41C129.862 13.1944 130.514 12.5589 131.299 12.1281C132.083 11.6973 132.97 11.4873 133.864 11.5205C138.63 11.5205 139.509 14.6556 139.509 18.7341L139.507 27.0419ZM119.526 9.8271C118.986 9.8272 118.459 9.66724 118.01 9.36746C117.561 9.06768 117.211 8.64154 117.005 8.14292C116.798 7.64431 116.744 7.09561 116.849 6.56623C116.954 6.03684 117.214 5.55054 117.596 5.16882C117.977 4.7871 118.463 4.52711 118.993 4.42172C119.522 4.31632 120.071 4.37027 120.569 4.57673C121.068 4.78318 121.494 5.13288 121.794 5.58161C122.094 6.03033 122.254 6.55792 122.255 7.09765C122.255 7.45603 122.184 7.8109 122.047 8.14202C121.91 8.47313 121.709 8.77401 121.456 9.02746C121.202 9.28091 120.901 9.48198 120.57 9.61918C120.239 9.75638 119.884 9.82704 119.526 9.8271ZM121.877 27.0419H117.17V11.8972H121.877V27.0419ZM141.851 0.00216228H114.807C114.193 -0.00476487 113.601 0.232292 113.162 0.66124C112.723 1.09019 112.472 1.67593 112.465 2.28977V29.4466C112.472 30.0607 112.723 30.6469 113.162 31.0763C113.601 31.5057 114.193 31.7432 114.807 31.7367H141.851C142.467 31.7444 143.06 31.5075 143.501 31.0782C143.942 30.6488 144.194 30.062 144.203 29.4466V2.28781C144.194 1.67276 143.941 1.08635 143.501 0.657408C143.06 0.22847 142.467 -0.00790966 141.851 0.000202087" fill="#EDAF52"/>
<path d="M147.815 27.6328C147.243 27.6383 146.696 27.8702 146.295 28.2777C145.893 28.6851 145.669 29.2351 145.672 29.8073C145.675 30.3794 145.904 30.9272 146.309 31.3308C146.715 31.7344 147.264 31.961 147.836 31.961C148.408 31.961 148.957 31.7344 149.363 31.3308C149.768 30.9272 149.997 30.3794 150 29.8073C150.003 29.2351 149.779 28.6851 149.377 28.2777C148.976 27.8702 148.429 27.6383 147.857 27.6328H147.815ZM147.815 31.7133C147.44 31.7195 147.071 31.6143 146.756 31.411C146.44 31.2077 146.192 30.9155 146.043 30.5711C145.893 30.2268 145.849 29.8459 145.917 29.4767C145.984 29.1074 146.159 28.7663 146.42 28.4965C146.681 28.2267 147.016 28.0404 147.382 27.961C147.749 27.8817 148.131 27.9129 148.481 28.0508C148.83 28.1886 149.13 28.4269 149.344 28.7354C149.557 29.044 149.675 29.409 149.681 29.7842C149.681 29.795 149.681 29.8053 149.681 29.8161C149.692 30.3084 149.506 30.7847 149.165 31.1403C148.825 31.4959 148.357 31.7016 147.865 31.7123H147.816" fill="#EDAF52"/>
</g>
<g clip-path="url(#clip3_5329_6776)">
<path d="M190 0C181.163 0 174 7.16348 174 16C174 22.7784 178.217 28.573 184.169 30.9043C184.029 29.6384 183.903 27.6915 184.225 26.3095C184.515 25.0608 186.101 18.3565 186.101 18.3565C186.101 18.3565 185.622 17.398 185.622 15.981C185.622 13.7562 186.912 12.0952 188.517 12.0952C189.882 12.0952 190.542 13.1201 190.542 14.349C190.542 15.7218 189.668 17.7743 189.217 19.6763C188.84 21.2688 190.015 22.5675 191.586 22.5675C194.43 22.5675 196.616 19.569 196.616 15.2407C196.616 11.4098 193.863 8.73133 189.932 8.73133C185.38 8.73133 182.708 12.146 182.708 15.6749C182.708 17.05 183.237 18.5246 183.898 19.3263C184.029 19.4847 184.048 19.6235 184.009 19.7852C183.888 20.2905 183.618 21.3773 183.565 21.5997C183.495 21.8926 183.333 21.9548 183.03 21.8136C181.032 20.8835 179.782 17.9618 179.782 15.6152C179.782 10.568 183.449 5.93285 190.354 5.93285C195.905 5.93285 200.218 9.88799 200.218 15.1737C200.218 20.6879 196.741 25.1257 191.915 25.1257C190.294 25.1257 188.77 24.2834 188.248 23.2885C188.248 23.2885 187.446 26.3434 187.251 27.092C186.89 28.4817 185.915 30.2238 185.263 31.2865C186.76 31.75 188.351 32 190 32C198.837 32 206 24.8365 206 16C206 7.16348 198.837 0 190 0Z" fill="#EDAF52"/>
</g>
<path d="M246 2C238.269 2 232 8.26875 232 16C232 23.7313 238.269 30 246 30C253.731 30 260 23.7313 260 16C260 8.26875 253.731 2 246 2ZM252.728 12.5531C252.737 12.7 252.737 12.8531 252.737 13.0031C252.737 17.5906 249.244 22.875 242.859 22.875C240.891 22.875 239.066 22.3031 237.528 21.3188C237.809 21.35 238.078 21.3625 238.366 21.3625C239.991 21.3625 241.484 20.8125 242.675 19.8813C241.15 19.85 239.869 18.85 239.431 17.475C239.966 17.5531 240.447 17.5531 240.997 17.4125C240.212 17.253 239.506 16.8265 238.999 16.2056C238.493 15.5846 238.217 14.8075 238.219 14.0063V13.9625C238.678 14.2219 239.219 14.3812 239.784 14.4031C239.309 14.0862 238.919 13.6569 238.649 13.1532C238.379 12.6495 238.238 12.087 238.238 11.5156C238.238 10.8687 238.406 10.2781 238.709 9.76562C239.581 10.8386 240.669 11.7161 241.901 12.3411C243.134 12.9662 244.485 13.3249 245.866 13.3938C245.375 11.0344 247.138 9.125 249.256 9.125C250.256 9.125 251.156 9.54375 251.791 10.2188C252.575 10.0719 253.325 9.77812 253.994 9.38437C253.734 10.1875 253.191 10.8656 252.469 11.2937C253.169 11.2188 253.844 11.025 254.469 10.7531C253.997 11.4469 253.406 12.0625 252.728 12.5531Z" fill="#EDAF52"/>
<path fill-rule="evenodd" clip-rule="evenodd" d="M316.292 6.70231C316.791 7.1987 317.15 7.81756 317.334 8.49675C317.987 10.9903 318 16.1959 318 16.1959C318 16.1959 318 21.4015 317.334 23.8951C317.148 24.5723 316.788 25.189 316.29 25.6834C315.791 26.1779 315.171 26.5327 314.493 26.7125C311.999 27.3813 301.993 27.3813 301.993 27.3813C301.993 27.3813 291.99 27.3813 289.497 26.723C288.819 26.5408 288.201 26.1836 287.705 25.6873C287.208 25.191 286.851 24.5729 286.669 23.8951C286 21.4015 286 16.1959 286 16.1959C286 16.1959 286 10.9903 286.669 8.49675C286.851 7.8189 287.208 7.20085 287.705 6.70452C288.201 6.20819 288.819 5.85102 289.497 5.66881C291.988 5 301.993 5 301.993 5C301.993 5 311.997 5 314.493 5.66881C315.173 5.84949 315.793 6.20593 316.292 6.70231ZM307.107 16.1959L298.794 11.3984V20.9934L307.107 16.1959Z" fill="#EDAF52"/>
<defs>
<clipPath id="clip0_5329_6776">
<rect width="32" height="32" fill="white" transform="translate(0.46582)"/>
</clipPath>
<clipPath id="clip1_5329_6776">
<rect width="32" height="32" fill="white" transform="translate(56.4658)"/>
</clipPath>
<clipPath id="clip2_5329_6776">
<rect width="37.5343" height="32" fill="white" transform="translate(112.466)"/>
</clipPath>
<clipPath id="clip3_5329_6776">
<rect width="32" height="32" fill="white" transform="translate(174)"/>
</clipPath>
</defs>
</svg>
