<svg width="18" height="18" viewBox="0 0 21 21" fill="none" xmlns="http://www.w3.org/2000/svg">
<path d="M8.83317 17.5C10.7561 17.4996 12.6235 16.8559 14.1383 15.6713L18.9006 20.4337L20.4324 18.9018L15.6701 14.1395C16.8553 12.6246 17.4994 10.7567 17.4998 8.83333C17.4998 4.05475 13.6118 0.166666 8.83317 0.166666C4.05459 0.166666 0.166504 4.05475 0.166504 8.83333C0.166504 13.6119 4.05459 17.5 8.83317 17.5ZM8.83317 2.33333C12.4179 2.33333 15.3332 5.24858 15.3332 8.83333C15.3332 12.4181 12.4179 15.3333 8.83317 15.3333C5.24842 15.3333 2.33317 12.4181 2.33317 8.83333C2.33317 5.24858 5.24842 2.33333 8.83317 2.33333Z" fill="white"/>
</svg>
